<svg width="56" height="56" viewBox="0 0 56 56" fill="none" xmlns="http://www.w3.org/2000/svg">
<path d="M48.4143 28.0001L50.9903 23.5481C51.2999 23.0125 51.3841 22.3758 51.2244 21.7781C51.0647 21.1804 50.6742 20.6706 50.1386 20.3608L45.682 17.7848V12.6514C45.682 12.0326 45.4361 11.4391 44.9986 11.0015C44.561 10.5639 43.9675 10.3181 43.3486 10.3181H38.2176L35.644 5.86376C35.3347 5.32787 34.8252 4.93675 34.2276 4.77643C33.9316 4.6971 33.6228 4.67687 33.3189 4.71691C33.0151 4.75694 32.722 4.85646 32.4566 5.00976L28 7.58576L23.5433 5.00743C23.0074 4.69802 22.3705 4.61417 21.7728 4.77433C21.175 4.93448 20.6654 5.32552 20.356 5.86143L17.78 10.3181H12.649C12.0301 10.3181 11.4366 10.5639 10.9991 11.0015C10.5615 11.4391 10.3156 12.0326 10.3156 12.6514V17.7824L5.85897 20.3584C5.59351 20.5118 5.36088 20.7161 5.17438 20.9594C4.98789 21.2028 4.85119 21.4805 4.77209 21.7768C4.693 22.073 4.67306 22.3819 4.71342 22.6858C4.75378 22.9898 4.85364 23.2828 5.00731 23.5481L7.58331 28.0001L5.00731 32.4521C4.69928 32.9882 4.61571 33.6244 4.77481 34.2219C4.93391 34.8194 5.32278 35.3298 5.85664 35.6418L10.3133 38.2178V43.3488C10.3133 43.9676 10.5591 44.5611 10.9967 44.9987C11.4343 45.4363 12.0278 45.6821 12.6466 45.6821H17.78L20.356 50.1388C20.5625 50.4919 20.8575 50.7852 21.2118 50.9897C21.5661 51.1943 21.9675 51.3031 22.3766 51.3054C22.7826 51.3054 23.1863 51.1981 23.5456 50.9904L27.9976 48.4144L32.4543 50.9904C32.9899 51.3 33.6266 51.3842 34.2243 51.2245C34.822 51.0648 35.3318 50.6743 35.6416 50.1388L38.2153 45.6821H43.3463C43.9651 45.6821 44.5586 45.4363 44.9962 44.9987C45.4338 44.5611 45.6796 43.9676 45.6796 43.3488V38.2178L50.1363 35.6418C50.4018 35.4883 50.6344 35.2841 50.8209 35.0408C51.0074 34.7974 51.1441 34.5197 51.2232 34.2234C51.3023 33.9272 51.3222 33.6183 51.2819 33.3144C51.2415 33.0104 51.1416 32.7174 50.988 32.4521L48.4143 28.0001ZM22.1643 16.3101C23.0929 16.3104 23.9833 16.6796 24.6397 17.3364C25.296 17.9932 25.6646 18.8839 25.6643 19.8124C25.664 20.741 25.2948 21.6314 24.638 22.2878C23.9812 22.9442 23.0905 23.3127 22.162 23.3124C21.2334 23.3121 20.343 22.9429 19.6866 22.2861C19.0302 21.6293 18.6617 20.7387 18.662 19.8101C18.6623 18.8815 19.0315 17.9911 19.6883 17.3347C20.3451 16.6784 21.2357 16.3098 22.1643 16.3101ZM22.8643 38.7101L19.131 35.9124L33.131 17.2458L36.8643 20.0434L22.8643 38.7101ZM33.831 39.6434C33.3712 39.6433 32.916 39.5526 32.4912 39.3765C32.0665 39.2004 31.6806 38.9424 31.3556 38.6171C31.0306 38.2919 30.7729 37.9059 30.597 37.481C30.4212 37.0562 30.3308 36.6009 30.331 36.1411C30.3311 35.6813 30.4218 35.2261 30.5979 34.8013C30.774 34.3766 31.032 33.9907 31.3573 33.6657C31.6825 33.3407 32.0685 33.083 32.4934 32.9072C32.9182 32.7313 33.3735 32.6409 33.8333 32.6411C34.7619 32.6414 35.6523 33.0106 36.3087 33.6674C36.965 34.3242 37.3336 35.2149 37.3333 36.1434C37.333 37.072 36.9638 37.9624 36.307 38.6188C35.6502 39.2752 34.7595 39.6437 33.831 39.6434Z" fill="#004793"/>
</svg>
