<svg width="41" height="40" viewBox="0 0 41 40" fill="none" xmlns="http://www.w3.org/2000/svg">
<path d="M40.9646 20.0007C40.9646 30.1019 33.4792 38.4528 23.7549 39.8079C22.8457 39.9341 21.9155 39.9999 20.9712 39.9999C19.8812 39.9999 18.8109 39.913 17.7686 39.7449C8.24888 38.2117 0.977783 29.9547 0.977783 20.0007C0.977783 8.95489 9.93006 0 20.9726 0C32.0151 0 40.9674 8.95489 40.9674 20.0007H40.9646Z" fill="#2F79C8"/>
<path d="M23.7548 16.0601V20.417H29.1429L28.2897 26.286H23.7548V39.8081C22.8455 39.9342 21.9153 40 20.971 40C19.881 40 18.8107 39.9132 17.7684 39.745V26.286H12.7991V20.417H17.7684V15.0861C17.7684 11.7788 20.4484 9.09656 23.7562 9.09656V9.09936C23.766 9.09936 23.7744 9.09656 23.7842 9.09656H29.1443V14.1724H25.6419C24.6009 14.1724 23.7562 15.0174 23.7562 16.0587L23.7548 16.0601Z" fill="white"/>
</svg>
