<svg width="48" height="48" viewBox="0 0 48 48" fill="none" xmlns="http://www.w3.org/2000/svg">
<path d="M42.5655 9.93452L38.241 14.2605C37.0298 12.4953 35.5032 10.9687 33.738 9.75752L38.064 5.43302C38.6609 4.83609 39.4706 4.50073 40.3148 4.50073C41.1589 4.50073 41.9686 4.83609 42.5655 5.43302C43.1624 6.02996 43.4978 6.83958 43.4978 7.68377C43.4978 8.52797 43.1624 9.33759 42.5655 9.93452ZM11.5605 29.5605C11.7038 29.4222 11.818 29.2566 11.8967 29.0736C11.9753 28.8906 12.0166 28.6938 12.0184 28.4946C12.0201 28.2955 11.9822 28.0979 11.9067 27.9136C11.8313 27.7292 11.7199 27.5618 11.5791 27.4209C11.4383 27.2801 11.2708 27.1687 11.0864 27.0933C10.9021 27.0179 10.7046 26.9799 10.5054 26.9816C10.3062 26.9834 10.1094 27.0248 9.92639 27.1034C9.74339 27.182 9.57787 27.2963 9.4395 27.4395L4.9395 31.9395C4.79623 32.0779 4.68196 32.2434 4.60335 32.4264C4.52473 32.6094 4.48335 32.8063 4.48162 33.0054C4.47989 33.2046 4.51785 33.4021 4.59327 33.5865C4.66869 33.7708 4.78007 33.9383 4.92091 34.0791C5.06175 34.22 5.22922 34.3313 5.41357 34.4068C5.59791 34.4822 5.79543 34.5201 5.9946 34.5184C6.19377 34.5167 6.3906 34.4753 6.57361 34.3967C6.75661 34.3181 6.92213 34.2038 7.0605 34.0605L11.5605 29.5605ZM16.0605 31.9395C16.3417 32.2208 16.4997 32.6023 16.4997 33C16.4997 33.3978 16.3417 33.7792 16.0605 34.0605L11.5605 38.5605C11.2776 38.8338 10.8987 38.985 10.5054 38.9815C10.1121 38.9781 9.73588 38.8204 9.45777 38.5423C9.17966 38.2641 9.02191 37.8879 9.01849 37.4946C9.01507 37.1013 9.16626 36.7224 9.4395 36.4395L13.9395 31.9395C14.2208 31.6583 14.6023 31.5003 15 31.5003C15.3977 31.5003 15.7792 31.6583 16.0605 31.9395ZM20.5605 38.5605C20.8337 38.2776 20.9849 37.8987 20.9815 37.5054C20.9781 37.1121 20.8203 36.7359 20.5422 36.4578C20.2641 36.1797 19.8879 36.0219 19.4946 36.0185C19.1013 36.0151 18.7224 36.1663 18.4395 36.4395L13.9395 40.9395C13.7962 41.0779 13.682 41.2434 13.6033 41.4264C13.5247 41.6094 13.4834 41.8063 13.4816 42.0054C13.4799 42.2046 13.5178 42.4021 13.5933 42.5865C13.6687 42.7708 13.7801 42.9383 13.9209 43.0791C14.0617 43.22 14.2292 43.3313 14.4136 43.4068C14.5979 43.4822 14.7954 43.5201 14.9946 43.5184C15.1938 43.5167 15.3906 43.4753 15.5736 43.3967C15.7566 43.3181 15.9221 43.2038 16.0605 43.0605L20.5605 38.5605ZM12.3555 14.433C11.7494 13.8407 10.9328 13.5133 10.0854 13.523C9.23798 13.5327 8.42911 13.8787 7.83675 14.4848C7.24439 15.0909 6.91706 15.9074 6.92676 16.7549C6.93647 17.6023 7.28241 18.4112 7.8885 19.0035L29.0325 40.1475C29.6296 40.749 30.4413 41.0887 31.2888 41.0918C32.1364 41.0949 32.9505 40.7612 33.552 40.164C34.1535 39.5669 34.4932 38.7553 34.4963 37.9077C34.4994 37.0601 34.1656 36.246 33.5685 35.6445L33.5535 35.628L12.4095 14.484L12.3555 14.433ZM14.001 12.8925L13.962 12.855C19.851 7.54202 28.935 7.72052 34.608 13.3935C40.281 19.0665 40.4595 28.1505 35.148 34.0395L35.145 34.0365L14.001 12.8925Z" fill="#2F79C8"/>
</svg>
