<svg width="25" height="24" viewBox="0 0 25 24" fill="none" xmlns="http://www.w3.org/2000/svg">
<path d="M20.439 21.0001C18.3557 21.0001 16.2973 20.5461 14.264 19.6381C12.2307 18.7301 10.3807 17.4425 8.71401 15.7751C7.04735 14.1078 5.76001 12.2578 4.85201 10.2251C3.94401 8.19246 3.48968 6.13412 3.48901 4.05012C3.48901 3.75012 3.58901 3.50012 3.78901 3.30012C3.98901 3.10012 4.23901 3.00012 4.53901 3.00012H8.58901C8.82235 3.00012 9.03068 3.07946 9.21401 3.23812C9.39735 3.39679 9.50568 3.58412 9.53901 3.80012L10.189 7.30012C10.2223 7.56679 10.214 7.79179 10.164 7.97512C10.114 8.15846 10.0223 8.31679 9.88901 8.45012L7.46401 10.9001C7.79735 11.5168 8.19301 12.1125 8.65101 12.6871C9.10901 13.2618 9.61335 13.8161 10.164 14.3501C10.6807 14.8668 11.2223 15.3461 11.789 15.7881C12.3557 16.2301 12.9557 16.6341 13.589 17.0001L15.939 14.6501C16.089 14.5001 16.285 14.3878 16.527 14.3131C16.769 14.2385 17.0063 14.2175 17.239 14.2501L20.689 14.9501C20.9223 15.0168 21.114 15.1378 21.264 15.3131C21.414 15.4885 21.489 15.6841 21.489 15.9001V19.9501C21.489 20.2501 21.389 20.5001 21.189 20.7001C20.989 20.9001 20.739 21.0001 20.439 21.0001Z" fill="white"/>
</svg>
