<svg width="56" height="56" viewBox="0 0 56 56" fill="none" xmlns="http://www.w3.org/2000/svg">
<path d="M44.3333 30.3335C45.1267 30.3335 45.8967 30.4268 46.6667 30.5435V23.3335C46.6667 22.0958 46.175 20.9088 45.2998 20.0337C44.4247 19.1585 43.2377 18.6668 42 18.6668H39.6667V14.0002C39.6667 7.56016 34.44 2.3335 28 2.3335C21.56 2.3335 16.3333 7.56016 16.3333 14.0002V18.6668H14C12.7623 18.6668 11.5753 19.1585 10.7002 20.0337C9.82499 20.9088 9.33333 22.0958 9.33333 23.3335V46.6668C9.33333 49.2568 11.41 51.3335 14 51.3335H32.2233C31.0333 49.2802 30.3333 46.9002 30.3333 44.3335C30.3333 36.6102 36.61 30.3335 44.3333 30.3335ZM21 14.0002C21 10.1268 24.1267 7.00016 28 7.00016C31.8733 7.00016 35 10.1268 35 14.0002V18.6668H21V14.0002ZM28 39.6668C27.077 39.6668 26.1748 39.3931 25.4073 38.8804C24.6399 38.3676 24.0418 37.6387 23.6886 36.786C23.3353 35.9333 23.2429 34.995 23.423 34.0897C23.6031 33.1845 24.0475 32.353 24.7002 31.7003C25.3528 31.0477 26.1843 30.6032 27.0896 30.4232C27.9948 30.2431 28.9331 30.3355 29.7859 30.6887C30.6386 31.0419 31.3674 31.6401 31.8802 32.4075C32.393 33.1749 32.6667 34.0772 32.6667 35.0002C32.6667 37.5902 30.59 39.6668 28 39.6668ZM52.5 40.2502L41.4167 51.3335L35 44.3335L37.7067 41.6268L41.4167 45.3368L49.7933 36.9602L52.5 40.2502Z" fill="#004793"/>
</svg>
