<svg width="56" height="56" viewBox="0 0 56 56" fill="none" xmlns="http://www.w3.org/2000/svg">
<path d="M24.6517 4.84148C23.7323 5.28248 22.89 6.00114 21.7117 7.00681L21.5273 7.16081C20.51 8.07785 19.2084 8.61743 17.8407 8.68914L17.6027 8.70781C16.058 8.83148 14.9543 8.91781 13.993 9.25848C12.9004 9.64448 11.908 10.27 11.0884 11.0891C10.2688 11.9083 9.64287 12.9004 9.25633 13.9928C8.91799 14.9541 8.83166 16.0578 8.70799 17.6025L8.68933 17.8405C8.61761 19.2082 8.07804 20.5098 7.16099 21.5271L7.00699 21.7091C6.00133 22.8898 5.28033 23.7321 4.84166 24.6515C4.34234 25.6971 4.08319 26.8411 4.08319 27.9998C4.08319 29.1585 4.34234 30.3025 4.84166 31.3481C5.28266 32.2675 6.00133 33.1098 7.00699 34.2881L7.16099 34.4725C8.11766 35.5925 8.57033 36.6635 8.68933 38.1591L8.70799 38.3971C8.83166 39.9418 8.91799 41.0455 9.25866 42.0068C9.64466 43.0994 10.2701 44.0918 11.0893 44.9114C11.9085 45.731 12.9006 46.3569 13.993 46.7435C14.9543 47.0818 16.058 47.1681 17.6027 47.2918L17.8407 47.3105C19.3083 47.4271 20.384 47.8658 21.5273 48.8388L21.7117 48.9928C22.89 49.9985 23.7323 50.7195 24.6517 51.1581C25.6973 51.6575 26.8413 51.9166 28 51.9166C29.1587 51.9166 30.3027 51.6575 31.3483 51.1581C32.2677 50.7171 33.11 49.9985 34.2883 48.9928L34.4727 48.8388C35.5927 47.8821 36.6637 47.4295 38.1593 47.3105L38.3973 47.2918C39.942 47.1681 41.0457 47.0818 42.007 46.7411C43.0996 46.3551 44.092 45.7297 44.9116 44.9105C45.7312 44.0913 46.3571 43.0992 46.7437 42.0068C47.082 41.0455 47.1683 39.9418 47.292 38.3971L47.3107 38.1591C47.4273 36.6915 47.866 35.6158 48.839 34.4725L48.993 34.2881C49.9987 33.1098 50.7197 32.2675 51.1583 31.3481C51.6576 30.3025 51.9168 29.1585 51.9168 27.9998C51.9168 26.8411 51.6576 25.6971 51.1583 24.6515C50.7173 23.7321 49.9987 22.8898 48.993 21.7115L48.839 21.5271C47.922 20.5098 47.3824 19.2082 47.3107 17.8405L47.292 17.6025C47.1683 16.0578 47.082 14.9541 46.7413 13.9928C46.3553 12.9002 45.7298 11.9078 44.9107 11.0882C44.0915 10.2687 43.0994 9.64268 42.007 9.25614C41.0457 8.91781 39.942 8.83148 38.3973 8.70781L38.1593 8.68914C36.7916 8.61743 35.49 8.07785 34.4727 7.16081L34.2883 7.00681C33.11 6.00114 32.2677 5.28014 31.3483 4.84148C30.3027 4.34216 29.1587 4.08301 28 4.08301C26.8413 4.08301 25.6973 4.34216 24.6517 4.84148ZM36.8037 20.2811C37.1795 20.5532 37.4319 20.9634 37.5054 21.4215C37.579 21.8796 37.4675 22.3482 37.1957 22.7241L28.8027 34.3465C28.4431 34.8445 27.9759 35.255 27.4357 35.5474C26.8955 35.8399 26.2963 36.0066 25.6827 36.0353C25.0691 36.064 24.4569 35.9539 23.8918 35.7132C23.3267 35.4725 22.8231 35.1074 22.4187 34.6451L18.9047 30.6318C18.7531 30.4587 18.6372 30.2574 18.5635 30.0395C18.4897 29.8215 18.4596 29.5912 18.4749 29.3617C18.4902 29.1321 18.5505 28.9078 18.6525 28.7015C18.7544 28.4953 18.896 28.3112 19.0692 28.1596C19.2423 28.0081 19.4436 27.8922 19.6615 27.8184C19.8794 27.7447 20.1098 27.7146 20.3393 27.7299C20.5689 27.7452 20.7932 27.8055 20.9994 27.9075C21.2057 28.0094 21.3898 28.151 21.5413 28.3241L25.053 32.3398C25.1107 32.4055 25.1825 32.4574 25.263 32.4916C25.3435 32.5258 25.4307 32.5415 25.5181 32.5375C25.6055 32.5334 25.6908 32.5098 25.7678 32.4683C25.8449 32.4268 25.9116 32.3686 25.963 32.2978L34.3583 20.6755C34.4929 20.4889 34.6629 20.3306 34.8587 20.2098C35.0544 20.0889 35.2721 20.0079 35.4992 19.9713C35.7264 19.9346 35.9585 19.9432 36.1823 19.9963C36.4061 20.0495 36.6173 20.1463 36.8037 20.2811Z" fill="#004793"/>
</svg>
