<svg width="48" height="48" viewBox="0 0 48 48" fill="none" xmlns="http://www.w3.org/2000/svg">
<path d="M7 8.27003C7.00017 7.51017 7.26497 6.77408 7.7489 6.18824C8.23282 5.60241 8.90566 5.20339 9.65183 5.05974C10.398 4.91609 11.1709 5.03678 11.8377 5.40108C12.5046 5.76538 13.0237 6.35054 13.306 7.05603L13.594 7.77203C12.3615 8.67452 11.4056 9.90337 10.834 11.32C10.0227 13.3093 10.0084 15.5345 10.794 17.534C10.8678 17.721 10.9785 17.8911 11.1193 18.0345C11.2602 18.1778 11.4285 18.2914 11.6141 18.3684C11.7997 18.4455 11.9989 18.4844 12.1999 18.483C12.4009 18.4815 12.5995 18.4397 12.784 18.36L24.704 13.228C25.0618 13.0742 25.3458 12.7872 25.4959 12.4278C25.6459 12.0683 25.6503 11.6646 25.508 11.302C25.127 10.318 24.5537 9.41969 23.8216 8.65974C23.0895 7.8998 22.2132 7.29341 21.244 6.87603C19.6873 6.20757 17.9534 6.07256 16.312 6.49203L16.092 5.94203C15.551 4.58885 14.5556 3.46637 13.2768 2.76751C11.998 2.06866 10.5157 1.83708 9.08464 2.11259C7.65361 2.3881 6.36324 3.15348 5.43532 4.27718C4.5074 5.40088 3.99988 6.81272 4 8.27003V22H3.5C3.10218 22 2.72064 22.1581 2.43934 22.4394C2.15804 22.7207 2 23.1022 2 23.5C2 23.8979 2.15804 24.2794 2.43934 24.5607C2.72064 24.842 3.10218 25 3.5 25H4V25.71C4 26.46 4 26.9 4.032 27.39C4.316 31.864 6.732 35.994 10.236 38.694L10.158 38.83L8.158 42.83C7.98396 43.1855 7.95748 43.5954 8.08432 43.9703C8.21117 44.3452 8.48106 44.6548 8.83519 44.8316C9.18931 45.0084 9.59896 45.0381 9.97486 44.9142C10.3508 44.7902 10.6625 44.5228 10.842 44.17L12.778 40.3C14.39 41.1211 16.1389 41.6397 17.938 41.83C18.428 41.88 18.726 41.89 19.234 41.91H19.248C20.728 41.966 22.176 42 23.5 42C24.824 42 26.272 41.966 27.752 41.91H27.766C28.274 41.89 28.574 41.88 29.062 41.83C30.8611 41.6397 32.61 41.1211 34.222 40.3L36.158 44.172C36.2461 44.3483 36.3681 44.5054 36.5169 44.6345C36.6658 44.7636 36.8386 44.8621 37.0255 44.9244C37.2125 44.9867 37.4098 45.0116 37.6064 44.9977C37.8029 44.9837 37.9948 44.9311 38.171 44.843C38.3472 44.7549 38.5044 44.6329 38.6335 44.4841C38.7626 44.3352 38.8611 44.1624 38.9234 43.9755C38.9857 43.7886 39.0106 43.5912 38.9966 43.3947C38.9827 43.1981 38.9301 43.0063 38.842 42.83L36.842 38.83L36.766 38.694C40.268 35.994 42.686 31.862 42.97 27.39C43 26.9 43 26.46 43 25.71V25.634C43 25.514 43 25.388 42.992 25.274C42.9858 25.1824 42.9765 25.091 42.964 25H43.5C43.8978 25 44.2794 24.842 44.5607 24.5607C44.842 24.2794 45 23.8979 45 23.5C45 23.1022 44.842 22.7207 44.5607 22.4394C44.2794 22.1581 43.8978 22 43.5 22H7V8.27003Z" fill="#2F79C8"/>
</svg>
