<svg width="41" height="40" viewBox="0 0 41 40" fill="none" xmlns="http://www.w3.org/2000/svg">
<path d="M21.0294 0H20.9383C9.92103 0 0.989746 8.93392 0.989746 19.9545V20.0455C0.989746 31.0661 9.92103 40 20.9383 40H21.0294C32.0467 40 40.978 31.0661 40.978 20.0455V19.9545C40.978 8.93392 32.0467 0 21.0294 0Z" fill="#2F79C8"/>
<path d="M30.65 14.4707V18.2475C29.9901 18.183 29.1327 18.0331 28.1843 17.6855C26.9458 17.2315 26.024 16.6106 25.4201 16.13V23.7634L25.4047 23.7395C25.4145 23.8909 25.4201 24.0451 25.4201 24.2006C25.4201 27.9914 22.3366 31.0772 18.5455 31.0772C14.7545 31.0772 11.6709 27.9914 11.6709 24.2006C11.6709 20.4098 14.7545 17.3226 18.5455 17.3226C18.9168 17.3226 19.281 17.352 19.6369 17.4094V21.1315C19.295 21.0096 18.928 20.9438 18.5455 20.9438C16.7509 20.9438 15.2896 22.404 15.2896 24.2006C15.2896 25.9972 16.7509 27.4574 18.5455 27.4574C20.3402 27.4574 21.8014 25.9958 21.8014 24.2006C21.8014 24.1333 21.8 24.0661 21.7958 23.9988V9.16504H25.5686C25.5826 9.48456 25.5953 9.80688 25.6093 10.1264C25.6345 10.7556 25.8586 11.3596 26.2495 11.8543C26.7076 12.4359 27.3843 13.1114 28.3342 13.6509C29.2238 14.154 30.0588 14.3712 30.65 14.4735V14.4707Z" fill="white"/>
</svg>
