<svg width="41" height="40" viewBox="0 0 41 40" fill="none" xmlns="http://www.w3.org/2000/svg">
<path d="M21.0072 0H20.9161C9.89881 0 0.967529 8.93392 0.967529 19.9545V20.0455C0.967529 31.0661 9.89881 40 20.9161 40H21.0072C32.0245 40 40.9558 31.0661 40.9558 20.0455V19.9545C40.9558 8.93392 32.0245 0 21.0072 0Z" fill="#2F79C8"/>
<path d="M24.8598 25.85C19.742 25.85 15.5783 21.6837 15.5769 16.5644C15.5783 15.2667 16.6347 14.2114 17.9292 14.2114C18.0623 14.2114 18.1939 14.2226 18.32 14.2451C18.5974 14.2913 18.8608 14.3852 19.1032 14.5267C19.1382 14.5478 19.162 14.5814 19.1676 14.6206L19.7084 18.0302C19.7154 18.0695 19.7028 18.1101 19.6762 18.1395C19.3778 18.4703 18.9967 18.7085 18.5722 18.8276L18.3677 18.8851L18.4447 19.0827C19.1424 20.8596 20.563 22.2793 22.3408 22.98L22.5384 23.0584L22.5958 22.8538C22.7149 22.4292 22.9531 22.048 23.2837 21.7495C23.3075 21.7271 23.3397 21.7159 23.372 21.7159C23.379 21.7159 23.386 21.7159 23.3944 21.7173L26.803 22.2582C26.8436 22.2652 26.8772 22.2877 26.8982 22.3227C27.0383 22.5651 27.1322 22.83 27.1798 23.1075C27.2023 23.2308 27.2121 23.3611 27.2121 23.4971C27.2121 24.7934 26.1571 25.8486 24.8598 25.85Z" fill="#FDFDFD"/>
<path d="M33.9347 18.8767C33.6587 15.7572 32.2297 12.8633 29.9111 10.729C27.5785 8.58207 24.5524 7.39929 21.3875 7.39929C14.4415 7.39929 8.78992 13.0525 8.78992 20.0006C8.78992 22.3325 9.43295 24.6042 10.6504 26.583L7.9353 32.595L16.6284 31.6686C18.1401 32.2881 19.74 32.602 21.3861 32.602C21.819 32.602 22.2632 32.5795 22.7087 32.5333C23.1009 32.4913 23.4974 32.4296 23.8869 32.3511C29.7038 31.1753 33.9501 26.0112 33.9838 20.0679V20.0006C33.9838 19.6223 33.967 19.2439 33.9333 18.8781L33.9347 18.8767ZM16.9632 29.0298L12.1537 29.5427L13.5897 26.3602L13.3025 25.9748C13.2815 25.9467 13.2604 25.9187 13.2366 25.8865C11.9898 24.1642 11.3313 22.1293 11.3313 20.002C11.3313 14.4553 15.8424 9.94283 21.3875 9.94283C26.5824 9.94283 30.9857 13.9971 31.4102 19.1724C31.4326 19.4499 31.4452 19.7288 31.4452 20.0034C31.4452 20.0819 31.4438 20.159 31.4424 20.2417C31.3359 24.8817 28.0954 28.8224 23.5619 29.8258C23.2158 29.9029 22.8614 29.9617 22.5083 29.9996C22.1413 30.0416 21.7644 30.0626 21.3903 30.0626C20.058 30.0626 18.7635 29.8048 17.5404 29.2947C17.4045 29.24 17.2714 29.1812 17.1468 29.1209L16.9646 29.0326L16.9632 29.0298Z" fill="#FDFDFD"/>
</svg>
